<?xml version="1.0" standalone="no"?>
<!DOCTYPE svg PUBLIC "-//W3C//DTD SVG 20010904//EN"
 "http://www.w3.org/TR/2001/REC-SVG-20010904/DTD/svg10.dtd">
<svg version="1.0" xmlns="http://www.w3.org/2000/svg"
 width="512.000000pt" height="512.000000pt" viewBox="0 0 512.000000 512.000000"
 preserveAspectRatio="xMidYMid meet">
<metadata>
Created by potrace 1.14, written by Peter Selinger 2001-2017
</metadata>
<g transform="translate(0.000000,512.000000) scale(0.100000,-0.100000)"
fill="#000000" stroke="none">
<path d="M120 5114 c0 -9 121 -218 129 -224 4 -3 34 -50 66 -105 91 -156 166
-279 180 -295 7 -8 21 -31 32 -50 10 -19 65 -112 121 -206 l102 -171 0 -1291
0 -1291 -46 -78 c-25 -43 -56 -91 -68 -108 -26 -35 -236 -380 -236 -388 0 -3
69 -55 154 -115 84 -60 165 -120 180 -133 15 -13 53 -41 85 -64 68 -47 478
-343 671 -485 74 -55 137 -99 140 -100 3 0 57 41 120 90 63 50 156 122 205
160 50 39 117 94 151 123 89 76 365 290 368 286 1 -2 27 -42 58 -89 67 -104
196 -233 303 -305 122 -81 314 -177 379 -189 14 -2 60 -14 103 -26 130 -36
324 -60 483 -60 168 0 237 10 375 51 55 17 111 33 124 35 37 8 246 117 334
174 43 29 103 76 135 107 143 139 162 158 162 170 0 7 4 13 9 13 4 0 21 18 37
41 21 30 25 42 15 48 -7 4 -85 18 -174 30 -355 49 -464 74 -587 134 -91 44
-189 143 -220 222 -23 58 -24 72 -31 470 -7 412 -17 539 -55 686 -7 31 -16 74
-19 96 -9 73 -49 175 -137 354 -43 86 -76 138 -133 202 l-76 87 54 63 c79 93
114 148 168 262 100 211 133 385 125 660 -6 232 -33 349 -128 547 -74 153
-152 258 -255 343 -123 102 -354 220 -470 241 -15 3 -59 14 -98 24 -213 57
-140 54 -1542 57 -711 2 -1293 1 -1293 -3z"/>
</g>
</svg>
